<?xml version="1.0" standalone="no"?>
<!DOCTYPE svg PUBLIC "-//W3C//DTD SVG 20010904//EN"
 "http://www.w3.org/TR/2001/REC-SVG-20010904/DTD/svg10.dtd">
<svg version="1.0" xmlns="http://www.w3.org/2000/svg"
 width="512.000000pt" height="512.000000pt" viewBox="0 0 512.000000 512.000000"
 preserveAspectRatio="xMidYMid meet">
<metadata>
Created by potrace 1.16, written by Peter Selinger 2001-2019
</metadata>
<g transform="translate(0.000000,512.000000) scale(0.100000,-0.100000)"
fill="#000000" stroke="none">
<path d="M2247 5095 c-795 -96 -1494 -558 -1908 -1260 -172 -292 -292 -660
-329 -1007 -15 -144 -12 -458 5 -595 50 -393 183 -753 401 -1088 190 -293 477
-573 784 -767 241 -151 558 -281 815 -332 44 -9 90 -18 103 -21 l22 -5 0 1000
0 1000 -310 0 -310 0 0 355 0 355 309 0 309 0 4 363 c4 354 5 364 31 461 84
314 286 522 588 606 134 37 273 45 531 31 128 -7 250 -15 271 -18 l37 -5 0
-314 0 -314 -218 0 c-120 0 -245 -5 -277 -11 -104 -19 -171 -67 -209 -148 -20
-43 -21 -65 -24 -348 l-3 -303 350 0 c326 0 351 -1 351 -17 0 -22 -79 -640
-85 -670 l-5 -23 -305 0 -305 0 0 -1005 0 -1005 23 0 c36 0 195 30 297 55 231
58 523 182 720 305 221 137 507 391 652 575 283 362 452 742 529 1189 27 154
37 511 19 683 -76 750 -479 1422 -1110 1855 -338 231 -724 375 -1138 423 -154
18 -464 18 -615 0z"/>
</g>
</svg>
